# xmcd
#
# Track frame offsets: 
#        150
#        9511
#        19001
#        31400
#        41556
#        51367
#        61470
#        72024
#        85354
#        99005
#        111081
#        121717
#        132825
#        144872
#        156993
#        169040
#        180562
#        192136
#        204445
#        214354
#        228170
#        241874
#        254183
#        268052
#        282167
#
# Disc length: 3957 seconds
#
# Revision: 4
# Processed by: cddbd v1.5.2PL0 Copyright (c) Steve Scherf et al.
# Submitted via: ExactAudioCopy v1.3
#
DISCID=5a0f7319
DTITLE=Loretta Lynn - The Definitive Collection
DYEAR=2005
DGENRE=Country
TTITLE0=Wine, Women And Song
TTITLE1=Happy Birthday
TTITLE2=Blue Kentucky Girl
TTITLE3=You Ain't Woman Enough (To Take My Man)
TTITLE4=Don't Come Home A-Drinkin' (With Lovin' On Your Mind)
TTITLE5=Fist City
TTITLE6=You've Just Stepped In (From Stepping Out On Me)
TTITLE7=Woman Of The World (Leave My World Alone)
TTITLE8=Coal Miner's Daughter
TTITLE9=After The Fire Is Gone
TTITLE10=You're Looking At Country
TTITLE11=Lead Me On
TTITLE12=One's On The Way
TTITLE13=Rated ''X''
TTITLE14=The Pill
TTITLE15=Love Is The Foundation
TTITLE16=Louisiana Woman, Mississippi Man
TTITLE17=As Soon As I Hang Up The Phone
TTITLE18=Trouble In Paradise
TTITLE19=When The Tingle Becomes A Chill
TTITLE20=Feelins'
TTITLE21=Out Of My Head And Back In My Bed
TTITLE22=Somebody Somewhere (Don't Know What He's Missin' Tonight)
TTITLE23=She's Got You
TTITLE24=I Can't Feel You Anymore
EXTD=
EXTT0=
EXTT1=
EXTT2=
EXTT3=
EXTT4=
EXTT5=
EXTT6=
EXTT7=
EXTT8=
EXTT9=
EXTT10=
EXTT11=
EXTT12=
EXTT13=
EXTT14=
EXTT15=
EXTT16=
EXTT17=
EXTT18=
EXTT19=
EXTT20=
EXTT21=
EXTT22=
EXTT23=
EXTT24=
PLAYORDER=
